{
    "accessors": [
        {
            "bufferView": 0,
            "componentType": 5126,
            "count": 4,
            "max": [
                1.0,
                1.74846e-07,
                1.0
            ],
            "min": [
                -1.0,
                -1.74846e-07,
                -1.0
            ],
            "type": "VEC3"
        },
        {
            "bufferView": 1,
            "componentType": 5126,
            "count": 4,
            "type": "VEC3"
        },
        {
            "bufferView": 2,
            "componentType": 5126,
            "count": 4,
            "type": "VEC2"
        },
        {
            "bufferView": 3,
            "componentType": 5123,
            "count": 6,
            "type": "SCALAR"
        },
        {
            "bufferView": 4,
            "componentType": 5126,
            "count": 4,
            "max": [
                1.0,
                2.0,
                1.0
            ],
            "min": [
                -1.0,
                2.0,
                -1.0
            ],
            "type": "VEC3"
        },
        {
            "bufferView": 5,
            "componentType": 5126,
            "count": 4,
            "type": "VEC3"
        },
        {
            "bufferView": 6,
            "componentType": 5126,
            "count": 4,
            "type": "VEC2"
        },
        {
            "bufferView": 7,
            "componentType": 5123,
            "count": 6,
            "type": "SCALAR"
        },
        {
            "bufferView": 8,
            "componentType": 5126,
            "count": 4,
            "max": [
                1.0,
                2.0,
                -1.0
            ],
            "min": [
                -1.0,
                0.0,
                -1.0
            ],
            "type": "VEC3"
        },
        {
            "bufferView": 9,
            "componentType": 5126,
            "count": 4,
            "type": "VEC3"
        },
        {
            "bufferView": 10,
            "componentType": 5126,
            "count": 4,
            "type": "VEC2"
        },
        {
            "bufferView": 11,
            "componentType": 5123,
            "count": 6,
            "type": "SCALAR"
        },
        {
            "bufferView": 12,
            "componentType": 5126,
            "count": 4,
            "max": [
                1.0,
                2.0,
                1.0
            ],
            "min": [
                1.0,
                0.0,
                -1.0
            ],
            "type": "VEC3"
        },
        {
            "bufferView": 13,
            "componentType": 5126,
            "count": 4,
            "type": "VEC3"
        },
        {
            "bufferView": 14,
            "componentType": 5126,
            "count": 4,
            "type": "VEC2"
        },
        {
            "bufferView": 15,
            "componentType": 5123,
            "count": 6,
            "type": "SCALAR"
        },
        {
            "bufferView": 16,
            "componentType": 5126,
            "count": 4,
            "max": [
                -1.0,
                2.0,
                1.0
            ],
            "min": [
                -1.0,
                0.0,
                -1.0
            ],
            "type": "VEC3"
        },
        {
            "bufferView": 17,
            "componentType": 5126,
            "count": 4,
            "type": "VEC3"
        },
        {
            "bufferView": 18,
            "componentType": 5126,
            "count": 4,
            "type": "VEC2"
        },
        {
            "bufferView": 19,
            "componentType": 5123,
            "count": 6,
            "type": "SCALAR"
        },
        {
            "bufferView": 20,
            "componentType": 5126,
            "count": 24,
            "max": [
                0.703337,
                0.6,
                0.746079
            ],
            "min": [
                -0.0460751,
                -2.98023e-08,
                0.00310463
            ],
            "type": "VEC3"
        },
        {
            "bufferView": 21,
            "componentType": 5126,
            "count": 24,
            "type": "VEC3"
        },
        {
            "bufferView": 22,
            "componentType": 5126,
            "count": 24,
            "type": "VEC2"
        },
        {
            "bufferView": 23,
            "componentType": 5123,
            "count": 36,
            "type": "SCALAR"
        },
        {
            "bufferView": 24,
            "componentType": 5126,
            "count": 24,
            "max": [
                0.0495656,
                1.2,
                0.0906493
            ],
            "min": [
                -0.720444,
                0.0,
                -0.673479
            ],
            "type": "VEC3"
        },
        {
            "bufferView": 25,
            "componentType": 5126,
            "count": 24,
            "type": "VEC3"
        },
        {
            "bufferView": 26,
            "componentType": 5126,
            "count": 24,
            "type": "VEC2"
        },
        {
            "bufferView": 27,
            "componentType": 5123,
            "count": 36,
            "type": "SCALAR"
        },
        {
            "bufferView": 28,
            "componentType": 5126,
            "count": 4,
            "max": [
                0.23,
                1.98,
                0.16
            ],
            "min": [
                -0.24,
                1.98,
                -0.22
            ],
            "type": "VEC3"
        },
        {
            "bufferView": 29,
            "componentType": 5126,
            "count": 4,
            "type": "VEC3"
        },
        {
            "bufferView": 30,
            "componentType": 5126,
            "count": 4,
            "type": "VEC2"
        },
        {
            "bufferView": 31,
            "componentType": 5123,
            "count": 6,
            "type": "SCALAR"
        }
    ],
    "asset": {
        "generator": "pbrt_to_gltf.py",
        "version": "2.0"
    },
    "bufferViews": [
        {
            "buffer": 0,
            "byteLength": 48,
            "byteOffset": 0,
            "target": 34962
        },
        {
            "buffer": 0,
            "byteLength": 48,
            "byteOffset": 48,
            "target": 34962
        },
        {
            "buffer": 0,
            "byteLength": 32,
            "byteOffset": 96,
            "target": 34962
        },
        {
            "buffer": 0,
            "byteLength": 12,
            "byteOffset": 128,
            "target": 34963
        },
        {
            "buffer": 0,
            "byteLength": 48,
            "byteOffset": 140,
            "target": 34962
        },
        {
            "buffer": 0,
            "byteLength": 48,
            "byteOffset": 188,
            "target": 34962
        },
        {
            "buffer": 0,
            "byteLength": 32,
            "byteOffset": 236,
            "target": 34962
        },
        {
            "buffer": 0,
            "byteLength": 12,
            "byteOffset": 268,
            "target": 34963
        },
        {
            "buffer": 0,
            "byteLength": 48,
            "byteOffset": 280,
            "target": 34962
        },
        {
            "buffer": 0,
            "byteLength": 48,
            "byteOffset": 328,
            "target": 34962
        },
        {
            "buffer": 0,
            "byteLength": 32,
            "byteOffset": 376,
            "target": 34962
        },
        {
            "buffer": 0,
            "byteLength": 12,
            "byteOffset": 408,
            "target": 34963
        },
        {
            "buffer": 0,
            "byteLength": 48,
            "byteOffset": 420,
            "target": 34962
        },
        {
            "buffer": 0,
            "byteLength": 48,
            "byteOffset": 468,
            "target": 34962
        },
        {
            "buffer": 0,
            "byteLength": 32,
            "byteOffset": 516,
            "target": 34962
        },
        {
            "buffer": 0,
            "byteLength": 12,
            "byteOffset": 548,
            "target": 34963
        },
        {
            "buffer": 0,
            "byteLength": 48,
            "byteOffset": 560,
            "target": 34962
        },
        {
            "buffer": 0,
            "byteLength": 48,
            "byteOffset": 608,
            "target": 34962
        },
        {
            "buffer": 0,
            "byteLength": 32,
            "byteOffset": 656,
            "target": 34962
        },
        {
            "buffer": 0,
            "byteLength": 12,
            "byteOffset": 688,
            "target": 34963
        },
        {
            "buffer": 0,
            "byteLength": 288,
            "byteOffset": 700,
            "target": 34962
        },
        {
            "buffer": 0,
            "byteLength": 288,
            "byteOffset": 988,
            "target": 34962
        },
        {
            "buffer": 0,
            "byteLength": 192,
            "byteOffset": 1276,
            "target": 34962
        },
        {
            "buffer": 0,
            "byteLength": 72,
            "byteOffset": 1468,
            "target": 34963
        },
        {
            "buffer": 0,
            "byteLength": 288,
            "byteOffset": 1540,
            "target": 34962
        },
        {
            "buffer": 0,
            "byteLength": 288,
            "byteOffset": 1828,
            "target": 34962
        },
        {
            "buffer": 0,
            "byteLength": 192,
            "byteOffset": 2116,
            "target": 34962
        },
        {
            "buffer": 0,
            "byteLength": 72,
            "byteOffset": 2308,
            "target": 34963
        },
        {
            "buffer": 0,
            "byteLength": 48,
            "byteOffset": 2380,
            "target": 34962
        },
        {
            "buffer": 0,
            "byteLength": 48,
            "byteOffset": 2428,
            "target": 34962
        },
        {
            "buffer": 0,
            "byteLength": 32,
            "byteOffset": 2476,
            "target": 34962
        },
        {
            "buffer": 0,
            "byteLength": 12,
            "byteOffset": 2508,
            "target": 34963
        }
    ],
    "buffers": [
        {
            "byteLength": 2520,
            "uri": "_resources/0/cornell_box.bin"
        }
    ],
    "cameras": [
        {
            "name": "Camera",
            "perspective": {
                "yfov": 0.34033920413889424,
                "zfar": 100.0,
                "znear": 0.01
            },
            "type": "perspective"
        }
    ],
    "extensionsRequired": [
        "KHR_materials_specular",
        "KHR_materials_emissive_strength"
    ],
    "extensionsUsed": [
        "KHR_materials_specular",
        "KHR_materials_emissive_strength"
    ],
    "extras": {
        "pbrt": {
            "render": {
                "fov_degrees": 19.5,
                "integrator": "path",
                "max_depth": 65,
                "pixel_filter": "triangle",
                "resolution": [
                    1024,
                    1024
                ],
                "sampler": "sobol",
                "samples_per_pixel": 64
            }
        },
        "sceneId": "cornell-box",
        "sourceFormat": "pbrt-v4"
    },
    "materials": [
        {
            "doubleSided": false,
            "extensions": {
                "KHR_materials_specular": {
                    "specularFactor": 0.0
                }
            },
            "extras": {
                "pbrt": {
                    "Kd": {
                        "encoding": "rgb",
                        "value": [
                            0.63,
                            0.065,
                            0.05
                        ]
                    },
                    "reflectance_rgb": [
                        0.63,
                        0.065,
                        0.05
                    ],
                    "type": "diffuse"
                }
            },
            "name": "LeftWall",
            "pbrMetallicRoughness": {
                "baseColorFactor": [
                    0.63,
                    0.065,
                    0.05,
                    1.0
                ],
                "metallicFactor": 0.0,
                "roughnessFactor": 1.0
            }
        },
        {
            "doubleSided": false,
            "extensions": {
                "KHR_materials_specular": {
                    "specularFactor": 0.0
                }
            },
            "extras": {
                "pbrt": {
                    "Kd": {
                        "encoding": "rgb",
                        "value": [
                            0.14,
                            0.45,
                            0.091
                        ]
                    },
                    "reflectance_rgb": [
                        0.14,
                        0.45,
                        0.091
                    ],
                    "type": "diffuse"
                }
            },
            "name": "RightWall",
            "pbrMetallicRoughness": {
                "baseColorFactor": [
                    0.14,
                    0.45,
                    0.091,
                    1.0
                ],
                "metallicFactor": 0.0,
                "roughnessFactor": 1.0
            }
        },
        {
            "doubleSided": false,
            "extensions": {
                "KHR_materials_specular": {
                    "specularFactor": 0.0
                }
            },
            "extras": {
                "pbrt": {
                    "Kd": {
                        "encoding": "rgb",
                        "value": [
                            0.725,
                            0.71,
                            0.68
                        ]
                    },
                    "reflectance_rgb": [
                        0.725,
                        0.71,
                        0.68
                    ],
                    "type": "diffuse"
                }
            },
            "name": "Floor",
            "pbrMetallicRoughness": {
                "baseColorFactor": [
                    0.725,
                    0.71,
                    0.68,
                    1.0
                ],
                "metallicFactor": 0.0,
                "roughnessFactor": 1.0
            }
        },
        {
            "doubleSided": false,
            "extensions": {
                "KHR_materials_specular": {
                    "specularFactor": 0.0
                }
            },
            "extras": {
                "pbrt": {
                    "Kd": {
                        "encoding": "rgb",
                        "value": [
                            0.725,
                            0.71,
                            0.68
                        ]
                    },
                    "reflectance_rgb": [
                        0.725,
                        0.71,
                        0.68
                    ],
                    "type": "diffuse"
                }
            },
            "name": "Ceiling",
            "pbrMetallicRoughness": {
                "baseColorFactor": [
                    0.725,
                    0.71,
                    0.68,
                    1.0
                ],
                "metallicFactor": 0.0,
                "roughnessFactor": 1.0
            }
        },
        {
            "doubleSided": false,
            "extensions": {
                "KHR_materials_specular": {
                    "specularFactor": 0.0
                }
            },
            "extras": {
                "pbrt": {
                    "Kd": {
                        "encoding": "rgb",
                        "value": [
                            0.725,
                            0.71,
                            0.68
                        ]
                    },
                    "reflectance_rgb": [
                        0.725,
                        0.71,
                        0.68
                    ],
                    "type": "diffuse"
                }
            },
            "name": "BackWall",
            "pbrMetallicRoughness": {
                "baseColorFactor": [
                    0.725,
                    0.71,
                    0.68,
                    1.0
                ],
                "metallicFactor": 0.0,
                "roughnessFactor": 1.0
            }
        },
        {
            "doubleSided": false,
            "extensions": {
                "KHR_materials_specular": {
                    "specularFactor": 0.0
                }
            },
            "extras": {
                "pbrt": {
                    "Kd": {
                        "encoding": "rgb",
                        "value": [
                            0.725,
                            0.71,
                            0.68
                        ]
                    },
                    "reflectance_rgb": [
                        0.725,
                        0.71,
                        0.68
                    ],
                    "type": "diffuse"
                }
            },
            "name": "ShortBox",
            "pbrMetallicRoughness": {
                "baseColorFactor": [
                    0.725,
                    0.71,
                    0.68,
                    1.0
                ],
                "metallicFactor": 0.0,
                "roughnessFactor": 1.0
            }
        },
        {
            "doubleSided": false,
            "extensions": {
                "KHR_materials_specular": {
                    "specularFactor": 0.0
                }
            },
            "extras": {
                "pbrt": {
                    "Kd": {
                        "encoding": "rgb",
                        "value": [
                            0.725,
                            0.71,
                            0.68
                        ]
                    },
                    "reflectance_rgb": [
                        0.725,
                        0.71,
                        0.68
                    ],
                    "type": "diffuse"
                }
            },
            "name": "TallBox",
            "pbrMetallicRoughness": {
                "baseColorFactor": [
                    0.725,
                    0.71,
                    0.68,
                    1.0
                ],
                "metallicFactor": 0.0,
                "roughnessFactor": 1.0
            }
        },
        {
            "doubleSided": false,
            "emissiveFactor": [
                1.0,
                0.705882,
                0.235294
            ],
            "extensions": {
                "KHR_materials_emissive_strength": {
                    "emissiveStrength": 17.0
                },
                "KHR_materials_specular": {
                    "specularFactor": 0.0
                }
            },
            "extras": {
                "pbrt": {
                    "Kd": {
                        "encoding": "rgb",
                        "value": [
                            0.0,
                            0.0,
                            0.0
                        ]
                    },
                    "area_light_emissive_color": [
                        1.0,
                        0.705882,
                        0.235294
                    ],
                    "area_light_emissive_strength": 17.0,
                    "area_light_radiance_rgb": [
                        17.0,
                        12.0,
                        4.0
                    ],
                    "area_light_twosided": false,
                    "reflectance_rgb": [
                        0.0,
                        0.0,
                        0.0
                    ],
                    "type": "diffuse"
                }
            },
            "name": "Light",
            "pbrMetallicRoughness": {
                "baseColorFactor": [
                    0.0,
                    0.0,
                    0.0,
                    1.0
                ],
                "metallicFactor": 0.0,
                "roughnessFactor": 1.0
            }
        }
    ],
    "meshes": [
        {
            "name": "00_Floor",
            "primitives": [
                {
                    "attributes": {
                        "NORMAL": 1,
                        "POSITION": 0,
                        "TEXCOORD_0": 2
                    },
                    "indices": 3,
                    "material": 2,
                    "mode": 4
                }
            ]
        },
        {
            "name": "01_Ceiling",
            "primitives": [
                {
                    "attributes": {
                        "NORMAL": 5,
                        "POSITION": 4,
                        "TEXCOORD_0": 6
                    },
                    "indices": 7,
                    "material": 3,
                    "mode": 4
                }
            ]
        },
        {
            "name": "02_BackWall",
            "primitives": [
                {
                    "attributes": {
                        "NORMAL": 9,
                        "POSITION": 8,
                        "TEXCOORD_0": 10
                    },
                    "indices": 11,
                    "material": 4,
                    "mode": 4
                }
            ]
        },
        {
            "name": "03_RightWall",
            "primitives": [
                {
                    "attributes": {
                        "NORMAL": 13,
                        "POSITION": 12,
                        "TEXCOORD_0": 14
                    },
                    "indices": 15,
                    "material": 1,
                    "mode": 4
                }
            ]
        },
        {
            "name": "04_LeftWall",
            "primitives": [
                {
                    "attributes": {
                        "NORMAL": 17,
                        "POSITION": 16,
                        "TEXCOORD_0": 18
                    },
                    "indices": 19,
                    "material": 0,
                    "mode": 4
                }
            ]
        },
        {
            "name": "05_ShortBox",
            "primitives": [
                {
                    "attributes": {
                        "NORMAL": 21,
                        "POSITION": 20,
                        "TEXCOORD_0": 22
                    },
                    "indices": 23,
                    "material": 5,
                    "mode": 4
                }
            ]
        },
        {
            "name": "06_TallBox",
            "primitives": [
                {
                    "attributes": {
                        "NORMAL": 25,
                        "POSITION": 24,
                        "TEXCOORD_0": 26
                    },
                    "indices": 27,
                    "material": 6,
                    "mode": 4
                }
            ]
        },
        {
            "name": "07_Light",
            "primitives": [
                {
                    "attributes": {
                        "NORMAL": 29,
                        "POSITION": 28,
                        "TEXCOORD_0": 30
                    },
                    "indices": 31,
                    "material": 7,
                    "mode": 4
                }
            ]
        }
    ],
    "nodes": [
        {
            "mesh": 0,
            "name": "00_Floor"
        },
        {
            "mesh": 1,
            "name": "01_Ceiling"
        },
        {
            "mesh": 2,
            "name": "02_BackWall"
        },
        {
            "mesh": 3,
            "name": "03_RightWall"
        },
        {
            "mesh": 4,
            "name": "04_LeftWall"
        },
        {
            "mesh": 5,
            "name": "05_ShortBox"
        },
        {
            "mesh": 6,
            "name": "06_TallBox"
        },
        {
            "extras": {
                "pbrt": {
                    "areaLightSource": {
                        "area_light_emissive_color": [
                            1.0,
                            0.705882,
                            0.235294
                        ],
                        "area_light_emissive_strength": 17.0,
                        "rgb_L": [
                            17.0,
                            12.0,
                            4.0
                        ],
                        "twosided": false,
                        "type": "diffuse"
                    }
                }
            },
            "mesh": 7,
            "name": "07_Light"
        },
        {
            "camera": 0,
            "matrix": [
                1.0,
                0.0,
                0.0,
                0.0,
                0.0,
                1.0,
                0.0,
                0.0,
                0.0,
                0.0,
                1.0,
                0.0,
                0.0,
                1.0,
                6.8,
                1.0
            ],
            "name": "Camera"
        },
        {
            "children": [
                0,
                1,
                2,
                3,
                4,
                5,
                6,
                7,
                8
            ],
            "name": "cornell-box_root",
            "translation": [
                0.0,
                0.0,
                0.0
            ]
        }
    ],
    "scene": 0,
    "scenes": [
        {
            "name": "cornell-box",
            "nodes": [
                9
            ]
        }
    ]
}